<svg width="30" height="31" viewBox="0 0 30 31" fill="none" xmlns="http://www.w3.org/2000/svg">
<g id="Aparat" clip-path="url(#clip0_9834_57556)">
<path id="Vector" d="M15.0006 2.49148C3.41315 2.48773 -2.3906 16.4952 5.80064 24.689C7.61911 26.5079 9.93614 27.7467 12.4587 28.2488C14.9813 28.7508 17.5961 28.4935 19.9724 27.5094C22.3487 26.5253 24.3798 24.8586 25.8088 22.7201C27.2379 20.5815 28.0006 18.0673 28.0006 15.4952C28.0006 8.31523 22.1819 2.49398 15.0006 2.49148ZM7.6369 8.97773C8.26315 5.73023 12.5031 4.86023 14.3569 7.59898C16.2106 10.3377 13.8294 13.9515 10.5819 13.3265C10.1029 13.2345 9.64673 13.049 9.23946 12.7806C8.83218 12.5122 8.48179 12.1662 8.20829 11.7623C7.9348 11.3585 7.74356 10.9047 7.64552 10.4269C7.54748 9.94909 7.54455 9.45666 7.6369 8.97773ZM13.0394 20.2127C12.4094 23.459 8.16939 24.3227 6.31814 21.5827C4.4669 18.8427 6.85189 15.2327 10.0994 15.859C10.5784 15.9515 11.0346 16.1376 11.4416 16.4066C11.8487 16.6755 12.1988 17.0221 12.4719 17.4264C12.7449 17.8308 12.9356 18.285 13.033 18.7631C13.1303 19.2412 13.1325 19.7338 13.0394 20.2127ZM14.6144 17.2065C13.1744 16.9277 12.7869 15.0477 14.0006 14.2227C15.2131 13.3977 16.8206 14.4477 16.5506 15.8902C16.5106 16.104 16.4287 16.3078 16.3096 16.4898C16.1906 16.6718 16.0367 16.8284 15.8569 16.9508C15.677 17.0731 15.4748 17.1587 15.2618 17.2025C15.0488 17.2464 14.8279 17.2478 14.6144 17.2065ZM22.3631 22.004C21.7369 25.2515 17.4969 26.1202 15.6431 23.3827C13.7894 20.6452 16.1694 17.0302 19.4181 17.654C19.8973 17.746 20.3536 17.9315 20.7609 18.2C21.1683 18.4685 21.5187 18.8146 21.7923 19.2186C22.0658 19.6226 22.257 20.0765 22.3549 20.5545C22.4529 21.0324 22.4557 21.525 22.3631 22.004ZM19.9044 15.1265C16.6569 14.5002 15.7881 10.2565 18.5269 8.40148C21.2656 6.54648 24.8781 8.92898 24.2544 12.1765C24.163 12.656 23.9778 13.1129 23.7096 13.5208C23.4414 13.9287 23.0954 14.2798 22.6913 14.5538C22.2872 14.8278 21.8331 15.0194 21.3549 15.1177C20.8767 15.216 20.3838 15.219 19.9044 15.1265ZM16.9869 29.579L19.8169 30.3415C21.0069 30.6572 22.2735 30.4875 23.3384 29.8696C24.4033 29.2518 25.1792 28.2363 25.4956 27.0465L26.2956 24.044C24.0436 27.0445 20.6974 29.0338 16.9856 29.579M26.5394 4.99773L23.5856 4.21148C25.0781 5.35986 26.3278 6.79315 27.262 8.42822C28.1963 10.0633 28.7966 11.8676 29.0281 13.7365L29.8406 10.6627C30.1516 9.47382 29.9786 8.21012 29.3596 7.1485C28.7406 6.08689 27.726 5.31393 26.5381 4.99898M0.839395 17.7602L0.163145 20.3102C-0.152607 21.5002 0.0171122 22.7669 0.634993 23.8318C1.25287 24.8966 2.26834 25.6726 3.45815 25.989L6.0919 26.6915C3.28007 24.4808 1.40551 21.292 0.839395 17.7602ZM12.9456 1.37648L10.1869 0.65648C9.59725 0.49941 8.98244 0.46009 8.3776 0.540766C7.77275 0.621443 7.18974 0.820535 6.66188 1.12666C6.13402 1.43279 5.67168 1.83995 5.30127 2.32486C4.93086 2.80978 4.65965 3.36294 4.50315 3.95273L3.8144 6.55523C6.08688 3.72767 9.35251 1.87513 12.9456 1.37648Z" fill="#FC4048"/>
</g>
<defs>
<clipPath id="clip0_9834_57556">
<rect width="30" height="30" fill="white" transform="translate(0 0.5)"/>
</clipPath>
</defs>
</svg>
