<svg width="30" height="31" viewBox="0 0 30 31" fill="none" xmlns="http://www.w3.org/2000/svg">
<g id="vuesax/bold/facebook">
<g id="facebook">
<path id="Vector" d="M27.5 20.7375C27.5 25.2875 24.7875 28 20.2375 28H18.75C18.0625 28 17.5 27.4375 17.5 26.75V19.5375C17.5 19.2 17.775 18.9125 18.1125 18.9125L20.3125 18.875C20.4875 18.8625 20.6375 18.7375 20.675 18.5625L21.1125 16.175C21.15 15.95 20.975 15.7375 20.7375 15.7375L18.075 15.775C17.725 15.775 17.45 15.5 17.4375 15.1625L17.3875 12.1C17.3875 11.9 17.55 11.725 17.7625 11.725L20.7625 11.675C20.975 11.675 21.1375 11.5125 21.1375 11.3L21.0875 8.29999C21.0875 8.08749 20.925 7.925 20.7125 7.925L17.3375 7.97501C15.2625 8.01251 13.6125 9.7125 13.65 11.7875L13.7125 15.225C13.725 15.575 13.45 15.85 13.1 15.8625L11.6 15.8875C11.3875 15.8875 11.225 16.05 11.225 16.2625L11.2625 18.6375C11.2625 18.85 11.425 19.0125 11.6375 19.0125L13.1375 18.9875C13.4875 18.9875 13.7625 19.2625 13.775 19.6L13.8875 26.725C13.9 27.425 13.3375 28 12.6375 28H9.7625C5.2125 28 2.5 25.2875 2.5 20.725V10.2625C2.5 5.7125 5.2125 3 9.7625 3H20.2375C24.7875 3 27.5 5.7125 27.5 10.2625V20.7375Z" fill="#FC4048"/>
</g>
</g>
</svg>
