<svg width="30" height="31" viewBox="0 0 30 31" fill="none" xmlns="http://www.w3.org/2000/svg">
<g id="Instagram">
<path id="Vector" d="M9.75 3H20.25C24.25 3 27.5 6.25 27.5 10.25V20.75C27.5 22.6728 26.7362 24.5169 25.3765 25.8765C24.0169 27.2362 22.1728 28 20.25 28H9.75C5.75 28 2.5 24.75 2.5 20.75V10.25C2.5 8.32718 3.26384 6.48311 4.62348 5.12348C5.98311 3.76384 7.82718 3 9.75 3ZM9.5 5.5C8.30653 5.5 7.16193 5.97411 6.31802 6.81802C5.47411 7.66193 5 8.80653 5 10V21C5 23.4875 7.0125 25.5 9.5 25.5H20.5C21.6935 25.5 22.8381 25.0259 23.682 24.182C24.5259 23.3381 25 22.1935 25 21V10C25 7.5125 22.9875 5.5 20.5 5.5H9.5ZM21.5625 7.375C21.9769 7.375 22.3743 7.53962 22.6674 7.83265C22.9604 8.12567 23.125 8.5231 23.125 8.9375C23.125 9.3519 22.9604 9.74933 22.6674 10.0424C22.3743 10.3354 21.9769 10.5 21.5625 10.5C21.1481 10.5 20.7507 10.3354 20.4576 10.0424C20.1646 9.74933 20 9.3519 20 8.9375C20 8.5231 20.1646 8.12567 20.4576 7.83265C20.7507 7.53962 21.1481 7.375 21.5625 7.375ZM15 9.25C16.6576 9.25 18.2473 9.90848 19.4194 11.0806C20.5915 12.2527 21.25 13.8424 21.25 15.5C21.25 17.1576 20.5915 18.7473 19.4194 19.9194C18.2473 21.0915 16.6576 21.75 15 21.75C13.3424 21.75 11.7527 21.0915 10.5806 19.9194C9.40848 18.7473 8.75 17.1576 8.75 15.5C8.75 13.8424 9.40848 12.2527 10.5806 11.0806C11.7527 9.90848 13.3424 9.25 15 9.25ZM15 11.75C14.0054 11.75 13.0516 12.1451 12.3483 12.8483C11.6451 13.5516 11.25 14.5054 11.25 15.5C11.25 16.4946 11.6451 17.4484 12.3483 18.1517C13.0516 18.8549 14.0054 19.25 15 19.25C15.9946 19.25 16.9484 18.8549 17.6517 18.1517C18.3549 17.4484 18.75 16.4946 18.75 15.5C18.75 14.5054 18.3549 13.5516 17.6517 12.8483C16.9484 12.1451 15.9946 11.75 15 11.75Z" fill="#FC4048"/>
</g>
</svg>
