<svg width="30" height="31" viewBox="0 0 30 31" fill="none" xmlns="http://www.w3.org/2000/svg">
<g id="Linkdin">
<path id="Vector" d="M9.4596 6.61216C9.45931 7.23833 9.2241 7.83873 8.80572 8.28128C8.38734 8.72383 7.82007 8.97227 7.22869 8.97196C6.63731 8.97165 6.07026 8.7226 5.65231 8.27961C5.23435 7.83662 4.9997 7.23597 5 6.6098C5.0003 5.98363 5.2355 5.38323 5.65388 4.94068C6.07226 4.49813 6.63954 4.24969 7.23092 4.25C7.8223 4.25031 8.38934 4.49936 8.8073 4.94235C9.22526 5.38534 9.4599 5.98599 9.4596 6.61216ZM9.5265 10.7203H5.06689V25.5H9.5265V10.7203ZM16.5727 10.7203H12.1354V25.5H16.5281V17.7442C16.5281 13.4236 21.8461 13.0222 21.8461 17.7442V25.5H26.25V16.1387C26.25 8.85509 18.3788 9.1266 16.5281 12.7035L16.5727 10.7203Z" fill="#FC4048"/>
</g>
</svg>
