<svg width="30" height="31" viewBox="0 0 30 31" fill="none" xmlns="http://www.w3.org/2000/svg">
<g id="Telegram">
<path id="Vector" d="M25.3695 4.44865C25.3695 4.44865 27.682 3.47473 27.4885 5.83979C27.4248 6.81371 26.8468 10.2228 26.3969 13.9095L24.8552 24.8316C24.8552 24.8316 24.7266 26.4317 23.5701 26.7101C22.4142 26.9878 20.6797 25.7361 20.3583 25.4578C20.1011 25.2488 15.5405 22.1182 13.9345 20.5882C13.4845 20.1703 12.9703 19.3359 13.9988 18.362L20.7434 11.405C21.5142 10.5706 22.285 8.62271 19.0732 10.9878L10.0792 17.5963C10.0792 17.5963 9.05127 18.2925 7.12451 17.6664L2.94838 16.2746C2.94838 16.2746 1.40674 15.2312 4.04063 14.1879C10.4649 10.9183 18.3678 7.57935 25.3695 4.44865Z" fill="#FC4048"/>
</g>
</svg>
