<svg width="30" height="31" viewBox="0 0 30 31" fill="none" xmlns="http://www.w3.org/2000/svg">
<g id="vuesax/bold/whatsapp">
<g id="whatsapp">
<path id="Vector" d="M27.4749 14.763C27.0499 7.51305 20.4624 1.92556 12.8749 3.17556C7.64987 4.03806 3.46238 8.27554 2.64988 13.5005C2.17488 16.5255 2.7999 19.388 4.16241 21.7505L3.04989 25.888C2.79989 26.8255 3.66236 27.6755 4.58736 27.413L8.66237 26.288C10.5124 27.3755 12.6749 28.0005 14.9874 28.0005C22.0374 28.0005 27.8874 21.788 27.4749 14.763ZM21.0999 20.1505C20.9874 20.3755 20.8499 20.5881 20.6749 20.7881C20.3624 21.1256 20.0248 21.3756 19.6498 21.5256C19.2748 21.6881 18.8624 21.7631 18.4249 21.7631C17.7874 21.7631 17.0999 21.6131 16.3874 21.3006C15.6624 20.9881 14.9499 20.5755 14.2374 20.063C13.5124 19.538 12.8374 18.9505 12.1874 18.313C11.5374 17.663 10.9624 16.9755 10.4374 16.263C9.92485 15.5505 9.51238 14.838 9.21238 14.1255C8.91238 13.413 8.7624 12.7256 8.7624 12.0756C8.7624 11.6506 8.83739 11.2381 8.98739 10.8631C9.13739 10.4756 9.37491 10.1256 9.71241 9.81306C10.1124 9.41306 10.5499 9.22556 11.0124 9.22556C11.1874 9.22556 11.3623 9.26305 11.5248 9.33805C11.6873 9.41305 11.8374 9.52555 11.9499 9.68805L13.3998 11.738C13.5123 11.9005 13.5999 12.038 13.6499 12.1755C13.7124 12.313 13.7374 12.438 13.7374 12.563C13.7374 12.713 13.6874 12.8631 13.5999 13.0131C13.5124 13.1631 13.3999 13.313 13.2499 13.463L12.7748 13.963C12.6998 14.038 12.6749 14.113 12.6749 14.213C12.6749 14.263 12.6874 14.313 12.6999 14.363C12.7248 14.413 12.7374 14.4505 12.7499 14.488C12.8624 14.7005 13.0624 14.963 13.3374 15.288C13.6249 15.613 13.9249 15.9505 14.2499 16.2755C14.5874 16.613 14.9124 16.913 15.2499 17.2005C15.5749 17.4755 15.8499 17.6631 16.0624 17.7756C16.0999 17.7881 16.1374 17.813 16.1749 17.8255C16.2249 17.8505 16.2749 17.8506 16.3374 17.8506C16.4499 17.8506 16.5249 17.8131 16.5999 17.7381L17.0749 17.263C17.2374 17.1005 17.3874 16.9881 17.5249 16.9131C17.6749 16.8256 17.8124 16.7755 17.9749 16.7755C18.0999 16.7755 18.2249 16.8005 18.3624 16.863C18.4999 16.9255 18.6499 17.0006 18.7999 17.1131L20.8749 18.588C21.0374 18.7005 21.1499 18.8381 21.2249 18.9881C21.2874 19.1506 21.3249 19.3005 21.3249 19.4755C21.2499 19.688 21.1999 19.9255 21.0999 20.1505Z" fill="#FC4048"/>
</g>
</g>
</svg>
