<svg width="30" height="31" viewBox="0 0 30 31" fill="none" xmlns="http://www.w3.org/2000/svg">
<g id="Frame">
<path id="Vector" d="M16.9481 18.8848C16.982 18.9201 17.008 18.9459 17.0318 18.9727C19.0455 21.1534 21.0593 23.3341 23.073 25.516C23.4328 25.9062 23.7937 26.2954 24.1523 26.6857C24.193 26.7307 24.2349 26.7479 24.2971 26.7479C25.5755 26.7468 26.8539 26.7468 28.1323 26.7468C28.1572 26.7468 28.1821 26.7446 28.233 26.7425C25.0902 23.3384 21.9632 19.9515 18.8272 16.5539C22.1329 12.4583 25.4352 8.36489 28.75 4.25751C28.6923 4.25536 28.6561 4.25214 28.6199 4.25214C25.9353 4.25214 23.2495 4.25214 20.5649 4.25C20.4812 4.25 20.428 4.27144 20.3771 4.33577C18.5184 6.66768 16.6585 8.99959 14.7974 11.3304C14.7703 11.3637 14.742 11.3969 14.7092 11.4366C14.6753 11.4001 14.647 11.3712 14.6198 11.3422C12.4613 9.00174 10.3004 6.66232 8.14189 4.32183C8.09551 4.27144 8.04912 4.25 7.97785 4.25107C6.71077 4.25322 5.4437 4.25214 4.17662 4.25322C4.14494 4.25322 4.11213 4.25751 4.05783 4.26072C6.99473 7.44177 9.91806 10.6089 12.8459 13.7803C9.39879 18.0989 5.95732 22.4121 2.49887 26.7457C2.55883 26.7479 2.59843 26.7489 2.63689 26.7489C3.24781 26.7489 3.85872 26.7489 4.46963 26.7489C6.46867 26.7489 8.46658 26.7479 10.4656 26.7511C10.5629 26.7511 10.6217 26.7232 10.6806 26.6503C12.5914 24.2787 14.5033 21.9093 16.4164 19.5398C16.5747 19.3436 16.7331 19.1485 16.8915 18.9534C16.9074 18.9319 16.9243 18.9126 16.9481 18.8848ZM24.0494 6.41358C24.012 6.4629 23.9928 6.49185 23.9702 6.51973C23.2054 7.4675 22.4406 8.41528 21.6747 9.36305C20.454 10.8758 19.2333 12.3886 18.0127 13.9014C16.9198 15.2556 15.8281 16.6086 14.7352 17.9627C13.5813 19.393 12.4262 20.8232 11.2723 22.2534C10.6975 22.9653 10.1228 23.6783 9.54812 24.3913C9.51192 24.4363 9.47572 24.4631 9.40897 24.4631C8.72226 24.461 8.03668 24.462 7.34997 24.461C7.32621 24.461 7.30359 24.4535 7.26965 24.4481C7.30698 24.4009 7.33526 24.3634 7.36468 24.327C8.48581 22.9224 9.60695 21.5169 10.7281 20.1124C12.5291 17.8555 14.3302 15.5986 16.1313 13.3418C17.9504 11.0613 19.7696 8.78195 21.5876 6.5015C21.6385 6.43717 21.6894 6.41144 21.7743 6.41251C22.487 6.41573 23.1997 6.41466 23.9125 6.41466C23.9498 6.41358 23.9871 6.41358 24.0494 6.41358Z" fill="#FC4048"/>
</g>
</svg>
